<?xml version="1.0" encoding="UTF-8"?>
<svg width="143px" height="32px" viewBox="0 0 143 32" version="1.1" xmlns="http://www.w3.org/2000/svg" xmlns:xlink="http://www.w3.org/1999/xlink">
    <title>Croma_Logo@2x</title>
    <defs>
        <polygon id="path-1" points="0 0.793714286 22.4703429 0.793714286 22.4703429 25.8402958 0 25.8402958"></polygon>
        <polygon id="path-3" points="0 32 142.189714 32 142.189714 0 0 0"></polygon>
    </defs>
    <g id="Croma-Pages" stroke="none" stroke-width="1" fill="none" fill-rule="evenodd">
        <g id="03_Detail-Page" transform="translate(-75.000000, -64.000000)">
            <g id="Top-part-Copy" transform="translate(0.000000, -0.000000)">
                <g id="Croma_Logo" transform="translate(75.000000, 63.999314)">
                    <g id="Group-32">
                        <g id="Group-3" transform="translate(0.000000, 5.898857)">
                            <mask id="mask-2" fill="white">
                                <use xlink:href="#path-1"></use>
                            </mask>
                            <g id="Clip-2"></g>
                            <path d="M22.4703429,17.0571429 C22.2029143,19.2291429 21.4794857,21.0188571 20.3343429,22.4502857 C18.4657714,24.7714286 15.9852,25.92 12.7434857,25.836 C8.50748571,25.7554286 6.21891429,24.2022857 3.58577143,21.6634286 C1.3332,19.5102857 -0.000514285714,16.0011429 -0.000514285714,13.356 C-0.000514285714,11.5525714 0.4572,10.4262857 1.25948571,8.51142857 C2.13548571,6.50057143 3.12805714,5.52342857 4.50291429,4.24971429 C7.01948571,1.88057143 9.95777143,0.793714286 13.0863429,0.793714286 C15.6029143,0.793714286 17.7029143,1.41771429 19.3434857,2.64 C20.6772,3.65485714 21.3269143,4.86857143 21.3269143,6.28285714 C21.3269143,7.07314286 21.0594857,7.72114286 20.6017714,8.25257143 C20.1046286,8.77371429 19.4960571,9.04285714 18.8086286,9.04285714 C18.0834857,9.04285714 17.4732,8.76685714 16.9760571,8.19942857 C16.4806286,7.64914286 16.2149143,6.99257143 16.2149143,6.21085714 C16.2149143,5.42057143 16.6332,4.58571429 17.3960571,3.696 L17.5880571,3.17828571 C17.5880571,2.19428571 16.0623429,1.78628571 13.0469143,1.70914286 C9.91834286,1.61314286 8.08748571,2.44457143 6.86691429,3.82628571 C5.60862857,5.292 5.45434286,8.30228571 5.45434286,12.5057143 L5.45434286,15.2177143 C5.45434286,18.2657143 5.53148571,20.4942857 6.25662857,22.044 C7.13434286,23.9674286 9.27034286,25.0388571 12.3217714,25.0388571 C14.8400571,25.0388571 16.9006286,24.36 18.5412,22.9662857 C20.1440571,21.5674286 21.1743429,19.6045714 21.6303429,17.0571429 L22.4703429,17.0571429 Z" id="Fill-1" fill="#FFFFFF" mask="url(#mask-2)"></path>
                        </g>
                        <path d="M32.9628,13.5675429 C33.3056571,12.1446857 33.8405143,10.9241143 34.5262286,9.90925714 C35.9765143,7.8024 37.8450857,6.74297143 40.0582286,6.74297143 C41.2410857,6.74297143 42.1565143,7.06182857 42.8816571,7.68411429 C43.5690857,8.30297143 43.9496571,9.10697143 43.9496571,10.1338286 C43.9496571,10.9155429 43.7199429,11.5652571 43.2639429,12.0572571 C42.8439429,12.5646857 42.2713714,12.7841143 41.5462286,12.7841143 C40.8210857,12.7841143 40.2125143,12.5646857 39.7530857,12.0709714 C39.2953714,11.5875429 39.0296571,10.9772571 39.0296571,10.2024 C39.0296571,9.29725714 39.4856571,8.51554286 40.3633714,7.88297143 C40.3256571,7.74925714 37.5022286,8.33725714 36.1290857,9.66411429 C35.4810857,10.3138286 34.9462286,10.9464 34.6033714,11.5652571 C34.2588,12.1806857 33.9159429,13.1132571 33.5336571,14.3389714 C33.1153714,15.5578286 32.9628,17.3406857 32.9628,19.6944 L32.9628,30.0435429 L38.0370857,30.0435429 L38.0370857,31.0361143 L23.7690857,31.0361143 L23.7690857,30.0435429 L28.2708,30.0435429 L28.2708,8.74868571 L23.7690857,8.74868571 L23.7690857,7.79382857 L29.5290857,7.79382857 C31.0925143,7.79382857 32.2376571,7.27268571 32.9628,6.25268571 L32.9628,13.5675429 Z" id="Fill-4" fill="#FFFFFF"></path>
                        <path d="M56.0823429,6.49028571 C58.7137714,6.49028571 61.3092,7.53942857 63.7503429,9.62742857 C66.7263429,12.2211429 68.2520571,15.3342857 68.2520571,19.008 C68.2520571,22.368 66.9937714,25.3422857 64.4377714,27.9342857 C61.9194857,30.4371429 59.0583429,31.7194286 55.8526286,31.7194286 C52.4189143,31.7194286 49.4823429,30.4165714 46.9246286,27.84 C45.7057714,26.6228571 44.7526286,25.2291429 44.0652,23.7188571 C43.3777714,22.1828571 43.0349143,20.664 43.0349143,19.1794286 C43.0349143,17.5131429 43.4549143,15.84 44.2932,14.1668571 C45.1314857,12.5194286 46.3160571,11.0571429 47.8023429,9.80571429 C50.3977714,7.608 53.1834857,6.49028571 56.0823429,6.49028571 M62.9120571,23.4068571 L62.9120571,15.0137143 C62.9120571,13.3011429 62.8349143,12.0788571 62.6446286,11.34 C62.4920571,10.6405714 62.0720571,9.96171429 61.4994857,9.32057143 C60.2017714,8.00914286 58.3709143,7.34914286 55.9297714,7.34914286 C53.3720571,7.34914286 51.4657714,7.96628571 50.2829143,9.20914286 C49.0246286,10.4314286 48.4143429,12.3308571 48.4143429,14.9417143 L48.4143429,23.2491429 C48.4143429,26.064 49.0246286,28.0457143 50.2829143,29.2234286 C50.7406286,29.6862857 51.5429143,30.0822857 52.6109143,30.3805714 C53.7166286,30.7011429 54.8240571,30.864 55.9674857,30.864 C57.2652,30.864 58.4463429,30.6702857 59.4389143,30.288 C60.5069143,29.904 61.2697714,29.3811429 61.7274857,28.7245714 C62.5297714,27.6154286 62.9120571,25.8411429 62.9120571,23.4068571" id="Fill-6" fill="#FFFFFF"></path>
                        <path d="M77.3317714,12.6510857 C77.9043429,10.8699429 79.0100571,9.4128 80.6523429,8.27965714 C82.3306286,7.14822857 84.1992,6.58594286 86.2974857,6.58594286 C89.0077714,6.58594286 91.0683429,7.42251429 92.4020571,9.11965714 C93.0894857,10.0230857 93.5094857,11.2830857 93.6997714,12.9716571 C94.3854857,10.9916571 95.4929143,9.43851429 97.0563429,8.30365714 C98.5820571,7.1928 100.414629,6.62365714 102.4752,6.62365714 C105.106629,6.62365714 107.165486,7.42251429 108.578057,9.04594286 C109.226057,9.78308571 109.647771,10.6110857 109.836343,11.4545143 C110.066057,12.3168 110.1432,13.7242286 110.1432,15.7162286 L110.1432,30.0442286 L114.644914,30.0442286 L114.644914,31.0368 L100.796914,31.0368 L100.796914,30.0442286 L105.336343,30.0442286 L105.336343,12.3836571 C105.336343,9.28251429 104.000914,7.74994286 101.405486,7.74994286 C98.9643429,7.74994286 96.9414857,8.94308571 95.3403429,11.3396571 C94.2723429,13.0248 93.6997714,14.4493714 93.6997714,15.6545143 L93.6997714,30.0442286 L98.1620571,30.0442286 L98.1620571,31.0368 L84.4289143,31.0368 L84.4289143,30.0442286 L89.0077714,30.0442286 L89.0077714,11.5093714 C89.0077714,10.2665143 88.7026286,9.32022857 88.0906286,8.64308571 C87.4409143,7.92994286 86.5649143,7.56994286 85.4214857,7.56994286 C83.7037714,7.56994286 82.0254857,8.23337143 80.4603429,9.5688 C78.9346286,10.9230857 77.9043429,12.6099429 77.3317714,14.6653714 L77.3317714,30.0442286 L81.7580571,30.0442286 L81.7580571,31.0368 L68.1757714,31.0368 L68.1757714,30.0442286 L72.6414857,30.0442286 L72.6414857,8.74937143 L68.1757714,8.74937143 L68.1757714,7.79451429 L73.7849143,7.79451429 C75.6912,7.80137143 76.8363429,7.27165714 77.3317714,6.19337143 L77.3317714,12.6510857 Z" id="Fill-8" fill="#FFFFFF"></path>
                        <mask id="mask-4" fill="white">
                            <use xlink:href="#path-3"></use>
                        </mask>
                        <g id="Clip-11"></g>
                        <path d="M118.458857,2.54914286 L136.733143,2.54914286 L136.733143,0 L118.458857,0 L118.458857,2.54914286 Z M132.193714,17.5045714 L132.193714,11.7737143 C132.193714,10.4314286 132.003429,9.48514286 131.660571,8.92114286 C131.278286,8.33657143 130.592571,7.91314286 129.562286,7.63885714 C128.722286,7.44514286 127.692,7.34228571 126.433714,7.34228571 C124.450286,7.34228571 122.960571,7.62342857 121.854857,8.20457143 C120.824571,8.748 120.291429,9.39771429 120.291429,10.1485714 C120.291429,10.4468571 120.519429,10.7828571 120.939429,11.1188571 C121.702286,11.7205714 122.16,12.4234286 122.16,13.2205714 C122.16,13.9937143 121.892571,14.6211429 121.472571,15.0977143 C121.016571,15.5811429 120.404571,15.8108571 119.718857,15.8108571 C118.918286,15.8108571 118.308,15.5434286 117.848571,15.0051429 C117.353143,14.4634286 117.085714,13.7777143 117.085714,12.9325714 C117.085714,11.148 118.001143,9.62742857 119.832,8.34342857 C121.664571,7.05428571 123.800571,6.40971429 126.317143,6.40971429 C129.255429,6.40971429 132.423429,6.92914286 134.672571,8.376 C135.970286,9.14228571 136.390286,9.84514286 136.734857,10.572 C137.04,11.2817143 137.153143,12.1971429 137.153143,13.4108571 L137.153143,23.7342857 C137.230286,26.676 137.458286,28.404 137.533714,28.8651429 C137.763429,29.8491429 138.488571,30.2811429 139.326857,30.2314286 C140.206286,30.1628571 140.737714,29.724 141.236571,27.8485714 L142.189714,27.8485714 C141.274286,31.1931429 139.746857,31.5857143 137.610857,31.5943588 C136.162286,31.6011429 134.749714,31.1245714 133.949143,30.4765714 C133.148571,29.7891429 132.613714,28.8651429 132.423429,27.6154286 C131.660571,28.8805714 130.477714,29.8662857 128.950286,30.5451429 C127.426286,31.2428571 125.974286,31.5943588 123.951429,31.5943588 C121.054286,31.5943588 118.918286,30.984 117.543429,29.7634286 C116.208,28.6234286 115.522286,27.264 115.522286,25.7828571 C115.522286,24.5005714 116.017714,23.2337143 116.933143,22.0251429 C117.886286,20.7977143 119.070857,19.92 120.481714,19.3662857 C121.932,18.7937143 123.418286,18.3514286 125.593714,18.012 C127.731429,17.6691429 129.828,17.5045714 131.850857,17.5045714 L132.193714,17.5045714 Z M132.193714,18.4045714 L131.850857,18.4045714 C126.891429,18.4045714 123.610286,19.0234286 122.007429,20.2165714 C120.901714,21.0377143 120.404571,22.4948571 120.404571,24.636 C120.404571,26.676 120.747429,28.1297143 121.472571,28.9851429 C122.197714,29.82 123.418286,30.2588571 125.136,30.2588571 C126.737143,30.2588571 128.149714,29.8817143 129.485143,29.1445714 C130.743429,28.404 131.660571,27.42 132.193714,26.2062857 L132.193714,18.4045714 Z" id="Fill-10" fill="#FFFFFF" mask="url(#mask-4)"></path>
                    </g>
                    <polygon id="Path" fill="#00E9BF" points="118.458857 2.54914286 136.733143 2.54914286 136.733143 5.8730798e-13 118.458857 5.8730798e-13"></polygon>
                </g>
            </g>
        </g>
    </g>
</svg>